# xmcd
#
# Track frame offsets:
#	150
#	19550
#	33837
#	45400
#	58802
#	71507
#	87975
#	106680
#	121882
#	143877
#	158625
#	179450
#
# Disc length: 2615
#
# Revision: 1
# Processed by: cddbd v1.5.1PL0 Copyright (c) Steve Scherf et al.
# Submitted via: CDex 1.30
# Normalized: r0:DSETVAR1
#
DISCID=920a350c
DTITLE=Various Artist - The Best of alt.country :Exposed Roots Disc 2
DYEAR=1999
DGENRE=Country
TTITLE0=Waiting for the Sun - The Jay Hawks
TTITLE1=Talk Like That - Kelly Willis
TTITLE2=Guitar Town - Steve Earle
TTITLE3=Too Much Pork for Just One Fork - Southern Culture on the Skids
TTITLE4=Folsom Prision Blues - Johnny Cash
TTITLE5=Weightless Again - The Handsome Family
TTITLE6=Gravity of the Situation - Vic Chesnut
TTITLE7=Your Blue Door - Honeydogs
TTITLE8=Baby's Got New Plans - Alejandro Escovedo
TTITLE9=Mata Hari Dress - Marlee MacLeod
TTITLE10=The Saturday Option - Lambchop
TTITLE11=In My Hour of Darkness - Gram Parsons
EXTD=YEAR: 1999  ID3G:   2
EXTT0=\t
EXTT1=
EXTT2=
EXTT3=
EXTT4=
EXTT5=
EXTT6=
EXTT7=
EXTT8=
EXTT9=
EXTT10=
EXTT11=
PLAYORDER=
